grf
version=1
nRows=6
nColumns=37
inDegrees=no
endheader
time	ground_force_1_vx	ground_force_1_vy	ground_force_1_vz	ground_force_1_px	ground_force_1_py	ground_force_1_pz	ground_moment_1_mx	ground_moment_1_my	ground_moment_1_mz	ground_force_2_vx	ground_force_2_vy	ground_force_2_vz	ground_force_2_px	ground_force_2_py	ground_force_2_pz	ground_moment_2_mx	ground_moment_2_my	ground_moment_2_mz	ground_force_3_vx	ground_force_3_vy	ground_force_3_vz	ground_force_3_px	ground_force_3_py	ground_force_3_pz	ground_moment_3_mx	ground_moment_3_my	ground_moment_3_mz	ground_force_4_vx	ground_force_4_vy	ground_force_4_vz	ground_force_4_px	ground_force_4_py	ground_force_4_pz	ground_moment_4_mx	ground_moment_4_my	ground_moment_4_mz
      0.00000000	      0.00000000	     -0.00000000	      0.00000000	      0.00000000	      0.00000000	      0.00000000	      0.00000000	      0.00000000	      0.00000000	      1.42339838	     36.80689240	   -361.54623413	   -317.14892809	  -1087.61997914	      0.00000000	      0.00000000	      0.00000000	   1241.64070128	      0.28733769	    -38.49558642	   -409.17230225	   -309.67952174	   -740.96830571	      0.00000000	      0.00000000	     -0.00000000	  -2036.57427051	      0.00000000	     -0.00000000	      0.00000000	      0.00000000	      0.00000000	      0.00000000	      0.00000000	      0.00000000	      0.00000000
      0.01000000	      0.00000000	     -0.00000000	      0.00000000	      0.00000000	      0.00000000	      0.00000000	      0.00000000	      0.00000000	      0.00000000	      1.28358233	     36.55500031	   -363.03851318	   -315.27908147	  -1088.69311921	      0.00000000	      0.00000000	      0.00000000	   1218.28223218	      0.53226135	    -38.39121632	   -410.15585327	   -310.16965415	   -739.03894535	      0.00000000	      0.00000000	     -0.00000000	  -2179.65258728	      0.00000000	     -0.00000000	      0.00000000	      0.00000000	      0.00000000	      0.00000000	      0.00000000	      0.00000000	      0.00000000
      0.02000000	      0.00000000	     -0.00000000	      0.00000000	      0.00000000	      0.00000000	      0.00000000	      0.00000000	      0.00000000	      0.00000000	      1.77303159	     36.64749146	   -364.42266846	   -316.70477889	  -1088.62572669	      0.00000000	      0.00000000	      0.00000000	   1414.94486342	      0.36683832	    -38.67295078	   -408.15826416	   -310.23022989	   -741.25960613	      0.00000000	     -0.00000000	     -0.00000000	  -2109.88632130	      0.00000000	     -0.00000000	      0.00000000	      0.00000000	      0.00000000	      0.00000000	      0.00000000	      0.00000000	      0.00000000
      0.03000000	      0.00000000	     -0.00000000	      0.00000000	      0.00000000	      0.00000000	      0.00000000	      0.00000000	      0.00000000	      0.00000000	      1.51297486	     36.65420151	   -363.47924805	   -316.59636045	  -1088.06831559	      0.00000000	     -0.00000000	      0.00000000	   1289.26757039	      0.18905170	    -38.42379762	   -408.82604980	   -309.82310822	   -741.06035291	      0.00000000	     -0.00000000	     -0.00000000	  -2104.57460806	      0.00000000	     -0.00000000	      0.00000000	      0.00000000	      0.00000000	      0.00000000	      0.00000000	      0.00000000	      0.00000000
      0.04000000	      0.00000000	     -0.00000000	      0.00000000	      0.00000000	      0.00000000	      0.00000000	      0.00000000	      0.00000000	      0.00000000	      1.41688871	     36.81435013	   -361.98181152	   -316.81470313	  -1086.41924255	      0.00000000	      0.00000000	      0.00000000	   1346.26884769	      0.34730422	    -38.58157733	   -408.18792725	   -309.54450275	   -740.41789301	      0.00000000	     -0.00000000	     -0.00000000	  -2231.35618507	      0.00000000	     -0.00000000	      0.00000000	      0.00000000	      0.00000000	      0.00000000	      0.00000000	      0.00000000	      0.00000000
      0.05000000	      0.00000000	     -0.00000000	      0.00000000	      0.00000000	      0.00000000	      0.00000000	      0.00000000	      0.00000000	      0.00000000	      1.41729128	     36.72508240	   -362.03604126	   -316.50026717	  -1087.94905749	      0.00000000	      0.00000000	      0.00000000	   1192.54099221	     -0.15198457	    -37.97832488	   -407.11077881	   -309.75143524	   -740.62285040	      0.00000000	      0.00000000	     -0.00000000	  -2061.30299171	      0.00000000	     -0.00000000	      0.00000000	      0.00000000	      0.00000000	      0.00000000	      0.00000000	      0.00000000	      0.00000000
